<svg width="300" height="400" viewBox="0 0 300 400" fill="none" xmlns="http://www.w3.org/2000/svg">
<rect width="300" height="400" fill="#F3F4F6"/>
<rect x="20" y="20" width="260" height="360" fill="#E5E7EB"/>
<svg x="50" y="100" width="200" height="200" viewBox="0 0 24 24" fill="none" xmlns="http://www.w3.org/2000/svg">
<path d="M19 3H5C3.9 3 3 3.9 3 5V19C3 20.1 3.9 21 5 21H19C20.1 21 21 20.1 21 19V5C21 3.9 20.1 3 19 3ZM19 19H5V5H19V19ZM17 7H7V9H17V7ZM17 11H7V13H17V11ZM17 15H7V17H17V15Z" fill="#9B9BA5"/>
</svg>
<text x="150" y="350" text-anchor="middle" font-family="Arial, sans-serif" font-size="14" fill="#6B7280">Book Cover</text>
</svg>
